<?xml version="1.0" encoding="utf-8"?>
<svg xmlns="http://www.w3.org/2000/svg"
  xmlns:xlink="http://www.w3.org/1999/xlink" viewBox="0 0 960 960">
  <path fill="#627580" d="M480.186,514.557c78.402,0,151.734-7.769,219.996-23.308s122.055-38.311,161.38-68.316v91.624
	c0,24.647-17.065,47.554-51.197,68.718s-80.505,37.909-139.12,50.232c-58.616,12.324-122.303,18.485-191.059,18.485
	s-132.567-6.162-191.43-18.485c-58.864-12.324-105.238-29.067-139.121-50.232s-50.949-44.071-51.197-68.718v-91.624
	c39.325,30.005,93.118,52.777,161.38,68.316C328.08,506.787,401.536,514.557,480.186,514.557z M480.186,731.74
	c78.402,0,151.734-7.77,219.996-23.308s122.055-38.31,161.38-68.316v91.624c0,24.647-17.065,47.554-51.197,68.718
	c-34.13,21.165-80.505,38.042-139.12,50.634c-58.616,12.592-122.303,18.754-191.059,18.485
	c-68.756-0.268-132.567-6.43-191.43-18.485s-105.238-28.934-139.121-50.634c-33.884-21.7-50.949-44.607-51.197-68.718v-91.624
	c39.325,30.274,93.118,53.046,161.38,68.316S401.536,731.472,480.186,731.74z M480.186,90.415
	c68.756,0,132.442,6.162,191.059,18.485c58.616,12.324,104.99,29.068,139.12,50.232c34.13,21.165,51.197,44.204,51.197,69.119
	v68.718c0,24.915-17.065,47.956-51.197,69.119c-34.132,21.164-80.505,37.909-139.12,50.232
	c-58.616,12.324-122.303,18.485-191.059,18.485s-132.567-6.162-191.43-18.485c-58.864-12.321-105.238-29.065-139.121-50.23
	c-33.884-21.165-50.949-44.204-51.197-69.119v-68.719c0-24.915,17.065-47.955,51.197-69.119s80.505-37.909,139.12-50.232
	S411.182,90.415,480.186,90.415z"/>

</svg>
