<?xml version="1.0" encoding="utf-8"?>
<svg xmlns="http://www.w3.org/2000/svg"
  xmlns:xlink="http://www.w3.org/1999/xlink" viewBox="0 0 960 960" xml:space="preserve">
  <path fill="#6A7F8B" d="M480.175,420.302c73.779,0,142.787-6.749,207.024-20.249c64.237-13.499,114.858-33.282,151.864-59.349
	v79.598c0,21.412-16.059,41.312-48.178,59.698s-75.758,32.933-130.917,43.639c-55.16,10.706-115.091,16.059-179.793,16.059
	s-124.75-5.353-180.142-16.059C244.64,512.933,201,498.387,169.115,480s-47.945-38.286-48.178-59.698v-79.598
	c37.006,26.067,87.627,45.85,151.864,59.349C337.038,413.552,406.163,420.302,480.175,420.302z M480.175,779.19
	c73.779,0,142.787-6.633,207.024-19.899c64.237-13.266,114.858-33.166,151.864-59.698v79.598c0,21.645-16.059,41.661-48.178,60.047
	c-32.118,18.387-75.758,32.933-130.917,43.639c-55.16,10.706-115.091,16.059-179.793,16.059s-124.75-5.353-180.142-16.059
	C244.64,872.17,201,857.624,169.115,839.237c-31.886-18.387-47.945-38.402-48.178-60.047v-79.598
	c37.006,26.3,87.627,46.199,151.864,59.698C337.038,772.789,406.163,779.423,480.175,779.19z M480.175,599.746
	c73.779,0,142.787-6.75,207.024-20.249c64.237-13.499,114.858-33.282,151.864-59.349v79.598c0,21.412-16.059,41.312-48.178,59.698
	c-32.118,18.387-75.758,33.049-130.917,43.988c-55.16,10.939-115.091,16.292-179.793,16.059s-124.75-5.586-180.142-16.059
	S201,678.296,169.115,659.444c-31.886-18.852-47.945-38.752-48.178-59.698v-79.598c37.006,26.3,87.627,46.083,151.864,59.349
	S406.163,599.513,480.175,599.746z M480.175,61.064c64.702,0,124.633,5.353,179.793,16.059
	c55.16,10.706,98.799,25.253,130.917,43.639c32.118,18.387,48.178,38.402,48.178,60.047v59.698
	c0,21.645-16.059,41.661-48.178,60.047s-75.758,32.933-130.917,43.639c-55.16,10.706-115.091,16.059-179.793,16.059
	s-124.75-5.353-180.142-16.059C244.64,333.489,201,318.943,169.115,300.556c-31.886-18.387-47.945-38.402-48.178-60.047V180.81
	c0-21.645,16.059-41.661,48.178-60.047s75.758-32.933,130.917-43.639S415.24,61.064,480.175,61.064z"/>
</svg>
