<svg viewBox="170.606 215.604 557.894 557.894">
<path d="M502.753,494.751c0,4.533-1.867,8.667-5.6,12.4l-249.6,249.6c-3.467,3.467-7.467,5.2-12,5.2c-4.533,0-8.667-1.733-12.4-5.2
	l-26.8-26.8c-3.733-3.733-5.6-7.867-5.6-12.4c0-4.533,1.867-8.667,5.6-12.4l210.4-210.4l-210.4-210.8c-3.733-3.467-5.6-7.467-5.6-12
	c0-4.533,1.867-8.667,5.6-12.4l26.8-26.8c3.467-3.733,7.6-5.6,12.4-5.6c4.8,0,8.8,1.867,12,5.6l249.6,249.6
	C500.886,485.817,502.753,489.951,502.753,494.751z M708.353,494.751c0,4.533-1.733,8.667-5.2,12.4l-249.6,249.6
	c-3.733,3.467-7.867,5.2-12.4,5.2s-8.667-1.733-12.4-5.2l-26.8-26.8c-3.467-3.733-5.2-7.867-5.2-12.4c0-4.533,1.733-8.667,5.2-12.4
	l210.4-210.4l-210.4-210.8c-3.467-3.467-5.2-7.467-5.2-12c0-4.533,1.733-8.667,5.2-12.4l26.8-26.8c3.467-3.733,7.6-5.6,12.4-5.6
	c4.8,0,8.933,1.867,12.4,5.6l249.6,249.6C706.62,485.817,708.353,489.951,708.353,494.751z"/>
</svg>
