<svg viewBox="0 0 823.5 823.5">
<path d="M548.4,411.6c0-37.867-13.333-70.133-40-96.8c-26.667-26.667-58.933-40.133-96.8-40.4s-70.267,13.2-97.2,40.4
	c-26.933,27.2-40.267,59.467-40,96.8c0.267,37.333,13.6,69.6,40,96.8c26.4,27.2,58.8,40.667,97.2,40.4
	c38.4-0.267,70.667-13.733,96.8-40.4C534.533,481.733,547.867,449.467,548.4,411.6z M822.8,353.2V472c0,4.267-1.467,8.4-4.4,12.4
	s-6.4,6.4-10.4,7.2l-99.2,14.8c-6.933,19.2-13.867,35.467-20.8,48.8c12.533,17.867,31.6,42.533,57.2,74
	c3.467,4.267,5.2,8.667,5.2,13.2s-1.6,8.667-4.8,12.4c-9.6,13.333-27.2,32.667-52.8,58s-42.4,38-50.4,38c-4.267,0-8.933-1.6-14-4.8
	l-74-58c-15.733,8.267-32,15.067-48.8,20.4c-5.6,48.533-10.8,81.733-15.6,99.6c-2.4,10.133-8.8,15.2-19.2,15.2H352
	c-5.067,0-9.467-1.6-13.2-4.8c-3.733-3.2-5.733-7.067-6-11.6l-15.2-98.4c-17.333-5.6-33.333-12.267-48-20L194,746
	c-3.733,3.2-8.267,4.8-13.6,4.8c-4.8,0-9.2-2-13.2-6c-45.067-40.8-74.533-70.8-88.4-90c-2.4-3.467-3.6-7.6-3.6-12.4
	c0-4.267,1.333-8.4,4-12.4c5.333-7.467,14.533-19.333,27.6-35.6c13.067-16.267,22.667-28.8,28.8-37.6
	c-9.6-17.867-16.933-35.6-22-53.2l-98-14.4c-4.8-0.533-8.533-2.8-11.2-6.8c-2.667-4-4.133-8.133-4.4-12.4V351.2
	c0-4.267,1.467-8.4,4.4-12.4s6.267-6.4,10-7.2l99.6-14.8c5.067-16.533,12.133-32.933,21.2-49.2c-14.4-20.533-33.6-45.2-57.6-74
	c-3.467-4.267-5.2-8.533-5.2-12.8c0-3.733,1.6-7.867,4.8-12.4c9.333-12.8,26.933-32,52.8-57.6s42.667-38.4,50.4-38.4
	c4.8,0,9.467,1.867,14,5.6l74,57.2c15.733-8.267,32-15.067,48.8-20.4c5.6-48.533,10.8-81.733,15.6-99.6C335.2,5.067,341.6,0,352,0
	h118.8c5.067,0,9.467,1.6,13.2,4.8c3.733,3.2,5.733,7.067,6,11.6l15.2,98.4c17.6,5.6,33.6,12.267,48,20l76.4-57.6
	c3.2-3.2,7.467-4.8,12.8-4.8c4.533,0,8.933,1.867,13.2,5.6c46.133,42.4,75.6,72.667,88.4,90.8c2.667,2.933,4,6.933,4,12
	c0,4.267-1.467,8.4-4.4,12.4c-5.333,7.467-14.4,19.333-27.2,35.6s-22.533,28.8-29.2,37.6c9.333,17.867,16.667,35.333,22,52.4
	l98,15.2c4.8,0.533,8.533,2.8,11.2,6.8C821.067,344.8,822.533,348.933,822.8,353.2z"/>
</svg>
