<svg viewBox="0 0 960 960">
  <path d="M480.2,411.6c84.533,0,163.6-7.733,237.2-23.2c73.6-15.467,131.6-38.133,174-68v91.2c0,24.533-18.4,47.333-55.2,68.4
	c-36.8,21.067-86.8,37.733-150,50s-131.867,18.4-206,18.4c-74.133,0-142.933-6.133-206.4-18.4s-113.467-28.933-150-50
	s-54.933-43.867-55.2-68.4v-91.2c42.4,29.867,100.4,52.533,174,68C316.2,403.867,395.4,411.6,480.2,411.6z M480.2,822.8
	c84.533,0,163.6-7.6,237.2-22.8s131.6-38,174-68.4v91.2c0,24.8-18.4,47.733-55.2,68.8c-36.8,21.067-86.8,37.733-150,50
	S554.333,960,480.2,960c-74.133,0-142.933-6.133-206.4-18.4s-113.467-28.933-150-50s-54.933-44-55.2-68.8v-91.2
	c42.4,30.133,100.4,52.933,174,68.4S395.4,823.067,480.2,822.8z M480.2,617.2c84.533,0,163.6-7.733,237.2-23.2s131.6-38.133,174-68
	v91.2c0,24.533-18.4,47.333-55.2,68.4c-36.8,21.067-86.8,37.867-150,50.4c-63.2,12.533-131.867,18.667-206,18.4
	c-74.133-0.267-142.933-6.4-206.4-18.4c-63.467-12-113.467-28.8-150-50.4s-54.933-44.4-55.2-68.4V526c42.4,30.133,100.4,52.8,174,68
	S395.4,616.933,480.2,617.2z M480.2,0c74.133,0,142.8,6.133,206,18.4s113.2,28.933,150,50c36.8,21.067,55.2,44,55.2,68.8v68.4
	c0,24.8-18.4,47.733-55.2,68.8c-36.8,21.067-86.8,37.733-150,50c-63.2,12.267-131.867,18.4-206,18.4
	c-74.133,0-142.933-6.133-206.4-18.4c-63.467-12.267-113.467-28.933-150-50c-36.533-21.067-54.933-44-55.2-68.8v-68.4
	c0-24.8,18.4-47.733,55.2-68.8s86.8-37.733,150-50S405.8,0,480.2,0z"/>
</svg>
