<svg viewBox="0 0 960 960">
<path d="M480.214,519.783c90.259,0,174.681-8.944,253.266-26.833c78.585-17.889,140.514-44.105,185.786-78.648v105.48
	c0,28.374-19.646,54.746-58.94,79.11s-92.68,43.642-160.159,57.829c-67.481,14.188-140.799,21.28-219.953,21.28
	s-152.615-7.094-220.38-21.28c-67.766-14.188-121.153-33.463-160.16-57.829s-58.654-50.736-58.94-79.11v-105.48
	c45.272,34.543,107.2,60.759,185.786,78.648C305.105,510.838,389.67,519.783,480.214,519.783z M480.214,769.811
	c90.259,0,174.681-8.945,253.266-26.833c78.585-17.888,140.514-44.104,185.786-78.648v105.48c0,28.374-19.646,54.746-58.94,79.11
	c-39.292,24.366-92.68,43.795-160.159,58.291c-67.481,14.496-140.799,21.59-219.953,21.281
	c-79.154-0.309-152.615-7.402-220.38-21.281s-121.153-33.31-160.16-58.291c-39.008-24.982-58.654-51.353-58.94-79.11v-105.48
	c45.272,34.852,107.2,61.068,185.786,78.648C305.105,760.557,389.67,769.502,480.214,769.811z M480.214,31.497
	c79.154,0,152.471,7.094,219.953,21.281c67.481,14.188,120.868,33.464,160.159,57.829c39.292,24.366,58.94,50.889,58.94,79.572
	v79.11c0,28.683-19.646,55.208-58.94,79.572c-39.294,24.365-92.68,43.642-160.159,57.829
	c-67.481,14.188-140.799,21.28-219.953,21.28s-152.615-7.094-220.38-21.28c-67.766-14.184-121.153-33.461-160.16-57.826
	c-39.008-24.366-58.654-50.889-58.94-79.572V190.18c0-28.683,19.646-55.207,58.94-79.572s92.68-43.642,160.159-57.829
	S400.775,31.497,480.214,31.497z"/>

</svg>
