<svg viewBox="0 0 892.5 892.5">
<path d="M274.4,737.85v-102.8c0-5.067-1.6-9.2-4.8-12.4c-3.2-3.2-7.333-4.8-12.4-4.8H85.6c-4.8,0-8.933,1.6-12.4,4.8
	s-5.067,7.333-4.8,12.4v102.8c0,5.067,1.6,9.2,4.8,12.4c3.2,3.2,7.333,4.8,12.4,4.8h171.6c5.067,0,9.2-1.6,12.4-4.8
	C272.8,747.05,274.4,742.916,274.4,737.85z M274.4,532.25v-103.2c0-4.8-1.6-8.8-4.8-12c-3.2-3.2-7.333-4.8-12.4-4.8H85.6
	c-4.8,0-8.933,1.6-12.4,4.8c-3.467,3.2-5.067,7.2-4.8,12v103.2c0,4.8,1.6,8.8,4.8,12c3.2,3.2,7.333,4.8,12.4,4.8h171.6
	c5.067,0,9.2-1.6,12.4-4.8S274.4,537.05,274.4,532.25z M548.4,737.85v-102.8c0-5.067-1.6-9.2-4.8-12.4s-7.2-4.8-12-4.8H360
	c-5.067,0-9.2,1.6-12.4,4.8c-3.2,3.2-4.8,7.333-4.8,12.4v102.8c0,5.067,1.6,9.2,4.8,12.4c3.2,3.2,7.333,4.8,12.4,4.8h171.6
	c4.8,0,8.8-1.6,12-4.8C546.8,747.05,548.4,742.916,548.4,737.85z M274.4,326.25v-102.8c0-5.067-1.6-9.2-4.8-12.4
	c-3.2-3.2-7.333-4.8-12.4-4.8H85.6c-4.8,0-8.933,1.6-12.4,4.8c-3.467,3.2-5.067,7.333-4.8,12.4v102.8c0,5.067,1.6,9.2,4.8,12.4
	c3.2,3.2,7.333,4.8,12.4,4.8h171.6c5.067,0,9.2-1.6,12.4-4.8S274.4,331.317,274.4,326.25z M548.4,532.25v-103.2
	c0-4.8-1.6-8.8-4.8-12s-7.2-4.8-12-4.8H360c-5.067,0-9.2,1.6-12.4,4.8c-3.2,3.2-4.8,7.2-4.8,12v103.2c0,4.8,1.6,8.8,4.8,12
	c3.2,3.2,7.333,4.8,12.4,4.8h171.6c4.8,0,8.8-1.6,12-4.8S548.4,537.05,548.4,532.25z M822.8,737.85v-102.8c0-5.067-1.6-9.2-4.8-12.4
	s-7.333-4.8-12.4-4.8H634.4c-5.067,0-9.2,1.6-12.4,4.8s-4.8,7.333-4.8,12.4v102.8c0,5.067,1.6,9.2,4.8,12.4s7.333,4.8,12.4,4.8
	h171.2c5.067,0,9.2-1.6,12.4-4.8C821.2,747.05,822.8,742.916,822.8,737.85z M548.4,326.25v-102.8c0-5.067-1.6-9.2-4.8-12.4
	c-3.2-3.2-7.2-4.8-12-4.8H360c-5.067,0-9.2,1.6-12.4,4.8c-3.2,3.2-4.8,7.333-4.8,12.4v102.8c0,5.067,1.6,9.2,4.8,12.4
	c3.2,3.2,7.333,4.8,12.4,4.8h171.6c4.8,0,8.8-1.6,12-4.8S548.4,331.317,548.4,326.25z M822.8,532.25v-103.2c0-4.8-1.6-8.8-4.8-12
	s-7.333-4.8-12.4-4.8H634.4c-5.067,0-9.2,1.6-12.4,4.8c-3.2,3.2-4.8,7.2-4.8,12v103.2c0,4.8,1.6,8.8,4.8,12s7.333,4.8,12.4,4.8
	h171.2c5.067,0,9.2-1.6,12.4-4.8C821.2,541.05,822.8,537.05,822.8,532.25z M822.8,326.25v-102.8c0-5.067-1.6-9.2-4.8-12.4
	c-3.2-3.2-7.333-4.8-12.4-4.8H634.4c-5.067,0-9.2,1.6-12.4,4.8c-3.2,3.2-4.8,7.333-4.8,12.4v102.8c0,5.067,1.6,9.2,4.8,12.4
	c3.2,3.2,7.333,4.8,12.4,4.8h171.2c5.067,0,9.2-1.6,12.4-4.8C821.2,335.45,822.8,331.317,822.8,326.25z M891.6,155.05v582.8
	c0,23.467-8.4,43.6-25.2,60.4c-16.8,16.8-37.067,25.2-60.8,25.2h-720c-23.467,0-43.6-8.4-60.4-25.2C8.4,781.45,0,761.317,0,737.85
	v-582.8c0-23.733,8.4-44,25.2-60.8s36.933-25.2,60.4-25.2h720c23.733,0,44,8.4,60.8,25.2C883.2,111.05,891.6,131.317,891.6,155.05z"
	/>
</svg>
