<svg class="mq-icon" viewBox="0 0 24 24"><path d="M6.86 18.43V15.86Q6.86 15.67 6.74 15.55T6.43 15.43H2.14Q1.96 15.43 1.83 15.55T1.71 15.86V18.43Q1.71 18.62 1.83 18.74T2.14 18.86H6.43Q6.62 18.86 6.74 18.74T6.86 18.43ZM6.86 13.29V10.71Q6.86 10.53 6.74 10.41T6.43 10.29H2.14Q1.96 10.29 1.83 10.41T1.71 10.71V13.29Q1.71 13.47 1.83 13.59T2.14 13.71H6.43Q6.62 13.71 6.74 13.59T6.86 13.29ZM13.71 18.43V15.86Q13.71 15.67 13.59 15.55T13.29 15.43H9Q8.81 15.43 8.69 15.55T8.57 15.86V18.43Q8.57 18.62 8.69 18.74T9 18.86H13.29Q13.47 18.86 13.59 18.74T13.71 18.43ZM6.86 8.14V5.57Q6.86 5.38 6.74 5.26T6.43 5.14H2.14Q1.96 5.14 1.83 5.26T1.71 5.57V8.14Q1.71 8.33 1.83 8.45T2.14 8.57H6.43Q6.62 8.57 6.74 8.45T6.86 8.14ZM13.71 13.29V10.71Q13.71 10.53 13.59 10.41T13.29 10.29H9Q8.81 10.29 8.69 10.41T8.57 10.71V13.29Q8.57 13.47 8.69 13.59T9 13.71H13.29Q13.47 13.71 13.59 13.59T13.71 13.29ZM20.57 18.43V15.86Q20.57 15.67 20.45 15.55T20.14 15.43H15.86Q15.67 15.43 15.55 15.55T15.43 15.86V18.43Q15.43 18.62 15.55 18.74T15.86 18.86H20.14Q20.33 18.86 20.45 18.74T20.57 18.43ZM13.71 8.14V5.57Q13.71 5.38 13.59 5.26T13.29 5.14H9Q8.81 5.14 8.69 5.26T8.57 5.57V8.14Q8.57 8.33 8.69 8.45T9 8.57H13.29Q13.47 8.57 13.59 8.45T13.71 8.14ZM20.57 13.29V10.71Q20.57 10.53 20.45 10.41T20.14 10.29H15.86Q15.67 10.29 15.55 10.41T15.43 10.71V13.29Q15.43 13.47 15.55 13.59T15.86 13.71H20.14Q20.33 13.71 20.45 13.59T20.57 13.29ZM20.57 8.14V5.57Q20.57 5.38 20.45 5.26T20.14 5.14H15.86Q15.67 5.14 15.55 5.26T15.43 5.57V8.14Q15.43 8.33 15.55 8.45T15.86 8.57H20.14Q20.33 8.57 20.45 8.45T20.57 8.14ZM22.29 3.86V18.43Q22.29 19.31 21.66 19.94T20.14 20.57H2.14Q1.26 20.57 0.63 19.94T0 18.43V3.86Q0 2.97 0.63 2.34T2.14 1.71H20.14Q21.03 1.71 21.66 2.34T22.29 3.86Z" fill-rule="evenOdd"></path></svg>
